<svg xmlns="http://www.w3.org/2000/svg" xmlns:xlink="http://www.w3.org/1999/xlink" width="500" zoomAndPan="magnify" viewBox="155 96 110 160" height="500" preserveAspectRatio="xMidYMid meet" version="1.0"><defs><filter x="0%" y="0%" width="100%" height="100%" id="id1"><feColorMatrix values="0 0 0 0 1 0 0 0 0 1 0 0 0 0 1 0 0 0 1 0" color-interpolation-filters="sRGB"/></filter><g/><clipPath id="id2"><path d="M 13.023438 97.246094 L 171.433594 97.246094 L 171.433594 255.652344 L 13.023438 255.652344 Z M 13.023438 97.246094 " clip-rule="nonzero"/></clipPath><mask id="id3"><g filter="url(#id1)"><rect x="-37.5" width="450" fill="#000000" y="-37.499999" height="449.999989" fill-opacity="0.6784"/></g></mask><clipPath id="id4"><path d="M 0.679688 0.898438 L 139.429688 0.898438 L 139.429688 139.648438 L 0.679688 139.648438 Z M 0.679688 0.898438 " clip-rule="nonzero"/></clipPath><clipPath id="id5"><path d="M 43.773438 134.464844 L 43.773438 134.503906 C 43.804688 134.503906 43.835938 134.503906 43.867188 134.503906 C 51.953125 137.8125 60.792969 139.648438 70.054688 139.648438 C 108.308594 139.648438 139.429688 108.527344 139.429688 70.273438 C 139.429688 46.960938 127.859375 26.316406 110.171875 13.730469 C 110.164062 13.714844 110.15625 13.703125 110.152344 13.6875 L 110.128906 13.699219 C 98.800781 5.652344 84.976562 0.898438 70.054688 0.898438 C 44.035156 0.898438 21.328125 15.308594 9.457031 36.554688 C 9.457031 36.554688 9.453125 36.554688 9.453125 36.554688 L 9.453125 36.558594 C 3.875 46.546875 0.679688 58.042969 0.679688 70.273438 C 0.679688 99.230469 18.515625 124.085938 43.773438 134.464844 Z M 7.601562 94.957031 C 40.878906 88.910156 76.386719 78.058594 103.191406 66.332031 C 104.621094 71.46875 105.660156 76.621094 106.320312 81.738281 C 105.574219 82.066406 104.824219 82.414062 104.058594 82.796875 C 92.222656 88.757812 84.785156 98.796875 77.589844 108.507812 C 68.621094 120.617188 60.136719 132.058594 44.261719 132.289062 C 27.570312 125.324219 14.28125 111.800781 7.601562 94.957031 Z M 49.113281 134.089844 C 63.003906 131.886719 70.980469 121.136719 79.363281 109.816406 C 86.402344 100.3125 93.679688 90.488281 105.046875 84.765625 C 105.570312 84.5 106.089844 84.253906 106.601562 84.019531 C 108.378906 100.582031 106.125 116.667969 99.800781 130.480469 C 90.828125 134.929688 80.730469 137.449219 70.054688 137.449219 C 62.742188 137.449219 55.707031 136.257812 49.113281 134.089844 Z M 102.886719 128.84375 C 108.601562 115.074219 110.542969 99.304688 108.707031 83.125 C 114.488281 80.851562 119.523438 80.492188 123.710938 82.070312 C 127.886719 83.640625 131.144531 87.179688 133.414062 92.554688 C 127.957031 108.023438 116.996094 120.90625 102.886719 128.84375 Z M 134.410156 89.5 C 131.960938 84.769531 128.636719 81.570312 124.488281 80.007812 C 122.523438 79.269531 120.414062 78.898438 118.164062 78.898438 C 115.164062 78.898438 111.910156 79.566406 108.433594 80.878906 C 107.742188 75.746094 106.679688 70.582031 105.230469 65.433594 C 116.90625 60.222656 126.796875 54.859375 133.988281 49.6875 C 136.082031 56.179688 137.226562 63.09375 137.226562 70.273438 C 137.226562 76.953125 136.234375 83.40625 134.410156 89.5 Z M 133.246094 47.507812 C 126.277344 52.609375 116.363281 57.980469 104.578125 63.234375 C 103.710938 60.367188 102.75 57.503906 101.644531 54.660156 C 100.984375 52.957031 100.285156 51.289062 99.558594 49.644531 C 105.742188 47.226562 110.375 42.828125 112.71875 37.0625 C 115.058594 31.300781 114.859375 24.679688 112.226562 18.042969 C 121.6875 25.695312 129.035156 35.855469 133.246094 47.507812 Z M 108.472656 15.222656 C 112.429688 22.53125 113.21875 29.972656 110.675781 36.234375 C 108.550781 41.464844 104.304688 45.441406 98.625 47.628906 C 89.300781 27.558594 75.109375 12.042969 58.675781 4.085938 C 62.378906 3.453125 66.175781 3.101562 70.054688 3.101562 C 84.335938 3.101562 97.578125 7.59375 108.472656 15.222656 Z M 55.015625 4.820312 C 72.078125 12.082031 86.910156 27.738281 96.535156 48.347656 C 79.789062 53.257812 67.289062 48.101562 54.0625 42.632812 C 41.683594 37.519531 28.902344 32.25 12.410156 35.835938 C 21.675781 20.390625 36.96875 8.964844 55.015625 4.820312 Z M 10.90625 38.46875 C 27.695312 34.148438 40.671875 39.484375 53.21875 44.667969 C 66.265625 50.058594 79.75 55.636719 97.339844 50.410156 C 97.382812 50.398438 97.425781 50.382812 97.46875 50.371094 C 98.207031 52.039062 98.921875 53.730469 99.59375 55.457031 C 100.707031 58.332031 101.679688 61.226562 102.550781 64.125 C 75.628906 75.882812 39.632812 86.929688 6.800781 92.863281 C 4.269531 85.800781 2.882812 78.199219 2.882812 70.273438 C 2.882812 58.773438 5.792969 47.941406 10.90625 38.46875 Z M 10.90625 38.46875 " clip-rule="nonzero"/></clipPath><linearGradient x1="63" gradientTransform="matrix(-1.10119, -0.000000000000000135, 0.000000000000000135, -1.10119, 139.429951, 139.650018)" y1="0.00000020051" x2="63" gradientUnits="userSpaceOnUse" y2="126" id="id6"><stop stop-opacity="1" stop-color="rgb(99.998474%, 56.098938%, 15.699768%)" offset="0"/><stop stop-opacity="1" stop-color="rgb(99.821472%, 56.060791%, 16.027832%)" offset="0.00390625"/><stop stop-opacity="1" stop-color="rgb(99.64447%, 56.022644%, 16.357422%)" offset="0.0078125"/><stop stop-opacity="1" stop-color="rgb(99.465942%, 55.984497%, 16.687012%)" offset="0.0117188"/><stop stop-opacity="1" stop-color="rgb(99.28894%, 55.94635%, 17.016602%)" offset="0.015625"/><stop stop-opacity="1" stop-color="rgb(99.110413%, 55.908203%, 17.346191%)" offset="0.0195313"/><stop stop-opacity="1" stop-color="rgb(98.933411%, 55.870056%, 17.675781%)" offset="0.0234375"/><stop stop-opacity="1" stop-color="rgb(98.754883%, 55.830383%, 18.003845%)" offset="0.0273438"/><stop stop-opacity="1" stop-color="rgb(98.577881%, 55.792236%, 18.333435%)" offset="0.03125"/><stop stop-opacity="1" stop-color="rgb(98.399353%, 55.754089%, 18.663025%)" offset="0.0351563"/><stop stop-opacity="1" stop-color="rgb(98.222351%, 55.715942%, 18.992615%)" offset="0.0390625"/><stop stop-opacity="1" stop-color="rgb(98.043823%, 55.677795%, 19.320679%)" offset="0.0429688"/><stop stop-opacity="1" stop-color="rgb(97.866821%, 55.639648%, 19.650269%)" offset="0.046875"/><stop stop-opacity="1" stop-color="rgb(97.688293%, 55.601501%, 19.979858%)" offset="0.0507813"/><stop stop-opacity="1" stop-color="rgb(97.511292%, 55.563354%, 20.309448%)" offset="0.0546875"/><stop stop-opacity="1" stop-color="rgb(97.332764%, 55.525208%, 20.639038%)" offset="0.0585938"/><stop stop-opacity="1" stop-color="rgb(97.155762%, 55.487061%, 20.968628%)" offset="0.0625"/><stop stop-opacity="1" stop-color="rgb(96.977234%, 55.448914%, 21.296692%)" offset="0.0664062"/><stop stop-opacity="1" stop-color="rgb(96.800232%, 55.410767%, 21.626282%)" offset="0.0703125"/><stop stop-opacity="1" stop-color="rgb(96.621704%, 55.371094%, 21.955872%)" offset="0.0742188"/><stop stop-opacity="1" stop-color="rgb(96.444702%, 55.332947%, 22.285461%)" offset="0.078125"/><stop stop-opacity="1" stop-color="rgb(96.266174%, 55.2948%, 22.613525%)" offset="0.0820312"/><stop stop-opacity="1" stop-color="rgb(96.089172%, 55.256653%, 22.943115%)" offset="0.0859375"/><stop stop-opacity="1" stop-color="rgb(95.910645%, 55.218506%, 23.272705%)" offset="0.0898438"/><stop stop-opacity="1" stop-color="rgb(95.733643%, 55.180359%, 23.602295%)" offset="0.09375"/><stop stop-opacity="1" stop-color="rgb(95.555115%, 55.142212%, 23.931885%)" offset="0.0976562"/><stop stop-opacity="1" stop-color="rgb(95.378113%, 55.104065%, 24.261475%)" offset="0.101562"/><stop stop-opacity="1" stop-color="rgb(95.199585%, 55.065918%, 24.589539%)" offset="0.105469"/><stop stop-opacity="1" stop-color="rgb(95.022583%, 55.027771%, 24.919128%)" offset="0.109375"/><stop stop-opacity="1" stop-color="rgb(94.844055%, 54.989624%, 25.248718%)" offset="0.113281"/><stop stop-opacity="1" stop-color="rgb(94.667053%, 54.951477%, 25.578308%)" offset="0.117188"/><stop stop-opacity="1" stop-color="rgb(94.488525%, 54.911804%, 25.907898%)" offset="0.121094"/><stop stop-opacity="1" stop-color="rgb(94.311523%, 54.873657%, 26.237488%)" offset="0.125"/><stop stop-opacity="1" stop-color="rgb(94.132996%, 54.83551%, 26.565552%)" offset="0.128906"/><stop stop-opacity="1" stop-color="rgb(93.955994%, 54.797363%, 26.895142%)" offset="0.132813"/><stop stop-opacity="1" stop-color="rgb(93.777466%, 54.759216%, 27.224731%)" offset="0.136719"/><stop stop-opacity="1" stop-color="rgb(93.600464%, 54.721069%, 27.554321%)" offset="0.140625"/><stop stop-opacity="1" stop-color="rgb(93.421936%, 54.682922%, 27.882385%)" offset="0.144531"/><stop stop-opacity="1" stop-color="rgb(93.244934%, 54.644775%, 28.211975%)" offset="0.148438"/><stop stop-opacity="1" stop-color="rgb(93.066406%, 54.606628%, 28.541565%)" offset="0.152344"/><stop stop-opacity="1" stop-color="rgb(92.889404%, 54.568481%, 28.871155%)" offset="0.15625"/><stop stop-opacity="1" stop-color="rgb(92.710876%, 54.528809%, 29.200745%)" offset="0.160156"/><stop stop-opacity="1" stop-color="rgb(92.533875%, 54.490662%, 29.530334%)" offset="0.164063"/><stop stop-opacity="1" stop-color="rgb(92.355347%, 54.452515%, 29.858398%)" offset="0.167969"/><stop stop-opacity="1" stop-color="rgb(92.178345%, 54.414368%, 30.187988%)" offset="0.171875"/><stop stop-opacity="1" stop-color="rgb(91.999817%, 54.376221%, 30.517578%)" offset="0.175781"/><stop stop-opacity="1" stop-color="rgb(91.822815%, 54.338074%, 30.847168%)" offset="0.179688"/><stop stop-opacity="1" stop-color="rgb(91.644287%, 54.299927%, 31.175232%)" offset="0.183594"/><stop stop-opacity="1" stop-color="rgb(91.467285%, 54.26178%, 31.504822%)" offset="0.1875"/><stop stop-opacity="1" stop-color="rgb(91.288757%, 54.223633%, 31.834412%)" offset="0.191406"/><stop stop-opacity="1" stop-color="rgb(91.111755%, 54.185486%, 32.164001%)" offset="0.195313"/><stop stop-opacity="1" stop-color="rgb(90.934753%, 54.147339%, 32.493591%)" offset="0.199219"/><stop stop-opacity="1" stop-color="rgb(90.757751%, 54.109192%, 32.823181%)" offset="0.203125"/><stop stop-opacity="1" stop-color="rgb(90.579224%, 54.069519%, 33.151245%)" offset="0.207031"/><stop stop-opacity="1" stop-color="rgb(90.402222%, 54.031372%, 33.480835%)" offset="0.210938"/><stop stop-opacity="1" stop-color="rgb(90.223694%, 53.993225%, 33.810425%)" offset="0.214844"/><stop stop-opacity="1" stop-color="rgb(90.046692%, 53.955078%, 34.140015%)" offset="0.21875"/><stop stop-opacity="1" stop-color="rgb(89.868164%, 53.916931%, 34.469604%)" offset="0.222656"/><stop stop-opacity="1" stop-color="rgb(89.691162%, 53.878784%, 34.799194%)" offset="0.226563"/><stop stop-opacity="1" stop-color="rgb(89.512634%, 53.840637%, 35.127258%)" offset="0.230469"/><stop stop-opacity="1" stop-color="rgb(89.335632%, 53.80249%, 35.456848%)" offset="0.234375"/><stop stop-opacity="1" stop-color="rgb(89.157104%, 53.764343%, 35.786438%)" offset="0.238281"/><stop stop-opacity="1" stop-color="rgb(88.980103%, 53.726196%, 36.116028%)" offset="0.242188"/><stop stop-opacity="1" stop-color="rgb(88.801575%, 53.688049%, 36.444092%)" offset="0.246094"/><stop stop-opacity="1" stop-color="rgb(88.624573%, 53.649902%, 36.773682%)" offset="0.25"/><stop stop-opacity="1" stop-color="rgb(88.446045%, 53.610229%, 37.103271%)" offset="0.253906"/><stop stop-opacity="1" stop-color="rgb(88.269043%, 53.572083%, 37.432861%)" offset="0.257813"/><stop stop-opacity="1" stop-color="rgb(88.090515%, 53.533936%, 37.762451%)" offset="0.261719"/><stop stop-opacity="1" stop-color="rgb(87.913513%, 53.495789%, 38.092041%)" offset="0.265625"/><stop stop-opacity="1" stop-color="rgb(87.734985%, 53.457642%, 38.420105%)" offset="0.269531"/><stop stop-opacity="1" stop-color="rgb(87.557983%, 53.419495%, 38.749695%)" offset="0.273438"/><stop stop-opacity="1" stop-color="rgb(87.379456%, 53.381348%, 39.079285%)" offset="0.277344"/><stop stop-opacity="1" stop-color="rgb(87.202454%, 53.343201%, 39.408875%)" offset="0.28125"/><stop stop-opacity="1" stop-color="rgb(87.023926%, 53.305054%, 39.736938%)" offset="0.285156"/><stop stop-opacity="1" stop-color="rgb(86.846924%, 53.266907%, 40.066528%)" offset="0.289063"/><stop stop-opacity="1" stop-color="rgb(86.668396%, 53.22876%, 40.396118%)" offset="0.292969"/><stop stop-opacity="1" stop-color="rgb(86.491394%, 53.190613%, 40.725708%)" offset="0.296875"/><stop stop-opacity="1" stop-color="rgb(86.312866%, 53.15094%, 41.055298%)" offset="0.300781"/><stop stop-opacity="1" stop-color="rgb(86.135864%, 53.112793%, 41.384888%)" offset="0.304688"/><stop stop-opacity="1" stop-color="rgb(85.957336%, 53.074646%, 41.712952%)" offset="0.308594"/><stop stop-opacity="1" stop-color="rgb(85.780334%, 53.036499%, 42.042542%)" offset="0.3125"/><stop stop-opacity="1" stop-color="rgb(85.601807%, 52.998352%, 42.372131%)" offset="0.316406"/><stop stop-opacity="1" stop-color="rgb(85.424805%, 52.960205%, 42.701721%)" offset="0.320313"/><stop stop-opacity="1" stop-color="rgb(85.246277%, 52.922058%, 43.031311%)" offset="0.324219"/><stop stop-opacity="1" stop-color="rgb(85.069275%, 52.883911%, 43.360901%)" offset="0.328125"/><stop stop-opacity="1" stop-color="rgb(84.890747%, 52.845764%, 43.688965%)" offset="0.332031"/><stop stop-opacity="1" stop-color="rgb(84.713745%, 52.807617%, 44.018555%)" offset="0.335938"/><stop stop-opacity="1" stop-color="rgb(84.535217%, 52.767944%, 44.348145%)" offset="0.339844"/><stop stop-opacity="1" stop-color="rgb(84.358215%, 52.729797%, 44.677734%)" offset="0.34375"/><stop stop-opacity="1" stop-color="rgb(84.179688%, 52.69165%, 45.005798%)" offset="0.347656"/><stop stop-opacity="1" stop-color="rgb(84.002686%, 52.653503%, 45.335388%)" offset="0.351563"/><stop stop-opacity="1" stop-color="rgb(83.824158%, 52.615356%, 45.664978%)" offset="0.355469"/><stop stop-opacity="1" stop-color="rgb(83.647156%, 52.577209%, 45.994568%)" offset="0.359375"/><stop stop-opacity="1" stop-color="rgb(83.468628%, 52.539062%, 46.324158%)" offset="0.363281"/><stop stop-opacity="1" stop-color="rgb(83.291626%, 52.500916%, 46.653748%)" offset="0.367188"/><stop stop-opacity="1" stop-color="rgb(83.113098%, 52.462769%, 46.981812%)" offset="0.371094"/><stop stop-opacity="1" stop-color="rgb(82.936096%, 52.424622%, 47.311401%)" offset="0.375"/><stop stop-opacity="1" stop-color="rgb(82.757568%, 52.386475%, 47.640991%)" offset="0.378906"/><stop stop-opacity="1" stop-color="rgb(82.580566%, 52.348328%, 47.970581%)" offset="0.382813"/><stop stop-opacity="1" stop-color="rgb(82.402039%, 52.308655%, 48.298645%)" offset="0.386719"/><stop stop-opacity="1" stop-color="rgb(82.225037%, 52.270508%, 48.628235%)" offset="0.390625"/><stop stop-opacity="1" stop-color="rgb(82.048035%, 52.232361%, 48.957825%)" offset="0.394531"/><stop stop-opacity="1" stop-color="rgb(81.871033%, 52.194214%, 49.287415%)" offset="0.398438"/><stop stop-opacity="1" stop-color="rgb(81.692505%, 52.156067%, 49.617004%)" offset="0.402344"/><stop stop-opacity="1" stop-color="rgb(81.515503%, 52.11792%, 49.946594%)" offset="0.40625"/><stop stop-opacity="1" stop-color="rgb(81.336975%, 52.079773%, 50.274658%)" offset="0.410156"/><stop stop-opacity="1" stop-color="rgb(81.159973%, 52.041626%, 50.604248%)" offset="0.414063"/><stop stop-opacity="1" stop-color="rgb(80.981445%, 52.003479%, 50.933838%)" offset="0.417969"/><stop stop-opacity="1" stop-color="rgb(80.804443%, 51.965332%, 51.263428%)" offset="0.421875"/><stop stop-opacity="1" stop-color="rgb(80.625916%, 51.927185%, 51.593018%)" offset="0.425781"/><stop stop-opacity="1" stop-color="rgb(80.448914%, 51.889038%, 51.922607%)" offset="0.429688"/><stop stop-opacity="1" stop-color="rgb(80.270386%, 51.849365%, 52.250671%)" offset="0.433594"/><stop stop-opacity="1" stop-color="rgb(80.093384%, 51.811218%, 52.580261%)" offset="0.4375"/><stop stop-opacity="1" stop-color="rgb(79.914856%, 51.773071%, 52.909851%)" offset="0.441406"/><stop stop-opacity="1" stop-color="rgb(79.737854%, 51.734924%, 53.239441%)" offset="0.445313"/><stop stop-opacity="1" stop-color="rgb(79.559326%, 51.696777%, 53.567505%)" offset="0.449219"/><stop stop-opacity="1" stop-color="rgb(79.382324%, 51.65863%, 53.897095%)" offset="0.453125"/><stop stop-opacity="1" stop-color="rgb(79.203796%, 51.620483%, 54.226685%)" offset="0.457031"/><stop stop-opacity="1" stop-color="rgb(79.026794%, 51.582336%, 54.556274%)" offset="0.460938"/><stop stop-opacity="1" stop-color="rgb(78.848267%, 51.544189%, 54.885864%)" offset="0.464844"/><stop stop-opacity="1" stop-color="rgb(78.671265%, 51.506042%, 55.215454%)" offset="0.46875"/><stop stop-opacity="1" stop-color="rgb(78.492737%, 51.46637%, 55.543518%)" offset="0.472656"/><stop stop-opacity="1" stop-color="rgb(78.315735%, 51.428223%, 55.873108%)" offset="0.476563"/><stop stop-opacity="1" stop-color="rgb(78.137207%, 51.390076%, 56.202698%)" offset="0.480469"/><stop stop-opacity="1" stop-color="rgb(77.960205%, 51.351929%, 56.532288%)" offset="0.484375"/><stop stop-opacity="1" stop-color="rgb(77.781677%, 51.313782%, 56.860352%)" offset="0.488281"/><stop stop-opacity="1" stop-color="rgb(77.604675%, 51.275635%, 57.189941%)" offset="0.492188"/><stop stop-opacity="1" stop-color="rgb(77.426147%, 51.237488%, 57.519531%)" offset="0.496094"/><stop stop-opacity="1" stop-color="rgb(77.249146%, 51.199341%, 57.849121%)" offset="0.5"/><stop stop-opacity="1" stop-color="rgb(77.070618%, 51.161194%, 58.178711%)" offset="0.503906"/><stop stop-opacity="1" stop-color="rgb(76.893616%, 51.123047%, 58.508301%)" offset="0.507812"/><stop stop-opacity="1" stop-color="rgb(76.715088%, 51.0849%, 58.836365%)" offset="0.511719"/><stop stop-opacity="1" stop-color="rgb(76.538086%, 51.046753%, 59.165955%)" offset="0.515625"/><stop stop-opacity="1" stop-color="rgb(76.359558%, 51.00708%, 59.495544%)" offset="0.519531"/><stop stop-opacity="1" stop-color="rgb(76.182556%, 50.968933%, 59.825134%)" offset="0.523438"/><stop stop-opacity="1" stop-color="rgb(76.004028%, 50.930786%, 60.154724%)" offset="0.527344"/><stop stop-opacity="1" stop-color="rgb(75.827026%, 50.892639%, 60.484314%)" offset="0.53125"/><stop stop-opacity="1" stop-color="rgb(75.648499%, 50.854492%, 60.812378%)" offset="0.535156"/><stop stop-opacity="1" stop-color="rgb(75.471497%, 50.816345%, 61.141968%)" offset="0.539062"/><stop stop-opacity="1" stop-color="rgb(75.292969%, 50.778198%, 61.471558%)" offset="0.542969"/><stop stop-opacity="1" stop-color="rgb(75.115967%, 50.740051%, 61.801147%)" offset="0.546875"/><stop stop-opacity="1" stop-color="rgb(74.937439%, 50.701904%, 62.129211%)" offset="0.550781"/><stop stop-opacity="1" stop-color="rgb(74.760437%, 50.663757%, 62.458801%)" offset="0.554688"/><stop stop-opacity="1" stop-color="rgb(74.581909%, 50.62561%, 62.788391%)" offset="0.558594"/><stop stop-opacity="1" stop-color="rgb(74.404907%, 50.587463%, 63.117981%)" offset="0.5625"/><stop stop-opacity="1" stop-color="rgb(74.226379%, 50.547791%, 63.447571%)" offset="0.566406"/><stop stop-opacity="1" stop-color="rgb(74.049377%, 50.509644%, 63.777161%)" offset="0.570312"/><stop stop-opacity="1" stop-color="rgb(73.87085%, 50.471497%, 64.105225%)" offset="0.574219"/><stop stop-opacity="1" stop-color="rgb(73.693848%, 50.43335%, 64.434814%)" offset="0.578125"/><stop stop-opacity="1" stop-color="rgb(73.51532%, 50.395203%, 64.764404%)" offset="0.582031"/><stop stop-opacity="1" stop-color="rgb(73.338318%, 50.357056%, 65.093994%)" offset="0.585938"/><stop stop-opacity="1" stop-color="rgb(73.161316%, 50.318909%, 65.422058%)" offset="0.589844"/><stop stop-opacity="1" stop-color="rgb(72.984314%, 50.280762%, 65.751648%)" offset="0.59375"/><stop stop-opacity="1" stop-color="rgb(72.805786%, 50.242615%, 66.081238%)" offset="0.597656"/><stop stop-opacity="1" stop-color="rgb(72.628784%, 50.204468%, 66.410828%)" offset="0.601562"/><stop stop-opacity="1" stop-color="rgb(72.450256%, 50.164795%, 66.740417%)" offset="0.605469"/><stop stop-opacity="1" stop-color="rgb(72.273254%, 50.126648%, 67.070007%)" offset="0.609375"/><stop stop-opacity="1" stop-color="rgb(72.094727%, 50.088501%, 67.398071%)" offset="0.613281"/><stop stop-opacity="1" stop-color="rgb(71.917725%, 50.050354%, 67.727661%)" offset="0.617188"/><stop stop-opacity="1" stop-color="rgb(71.739197%, 50.012207%, 68.057251%)" offset="0.621094"/><stop stop-opacity="1" stop-color="rgb(71.562195%, 49.97406%, 68.386841%)" offset="0.625"/><stop stop-opacity="1" stop-color="rgb(71.383667%, 49.935913%, 68.716431%)" offset="0.628906"/><stop stop-opacity="1" stop-color="rgb(71.206665%, 49.897766%, 69.046021%)" offset="0.632812"/><stop stop-opacity="1" stop-color="rgb(71.028137%, 49.859619%, 69.374084%)" offset="0.636719"/><stop stop-opacity="1" stop-color="rgb(70.851135%, 49.821472%, 69.703674%)" offset="0.640625"/><stop stop-opacity="1" stop-color="rgb(70.672607%, 49.783325%, 70.033264%)" offset="0.644531"/><stop stop-opacity="1" stop-color="rgb(70.495605%, 49.745178%, 70.362854%)" offset="0.648438"/><stop stop-opacity="1" stop-color="rgb(70.317078%, 49.705505%, 70.690918%)" offset="0.652344"/><stop stop-opacity="1" stop-color="rgb(70.140076%, 49.667358%, 71.020508%)" offset="0.65625"/><stop stop-opacity="1" stop-color="rgb(69.961548%, 49.629211%, 71.350098%)" offset="0.660156"/><stop stop-opacity="1" stop-color="rgb(69.784546%, 49.591064%, 71.679688%)" offset="0.664062"/><stop stop-opacity="1" stop-color="rgb(69.606018%, 49.552917%, 72.009277%)" offset="0.667969"/><stop stop-opacity="1" stop-color="rgb(69.429016%, 49.514771%, 72.338867%)" offset="0.671875"/><stop stop-opacity="1" stop-color="rgb(69.250488%, 49.476624%, 72.666931%)" offset="0.675781"/><stop stop-opacity="1" stop-color="rgb(69.073486%, 49.438477%, 72.996521%)" offset="0.679688"/><stop stop-opacity="1" stop-color="rgb(68.894958%, 49.40033%, 73.326111%)" offset="0.683594"/><stop stop-opacity="1" stop-color="rgb(68.717957%, 49.362183%, 73.655701%)" offset="0.6875"/><stop stop-opacity="1" stop-color="rgb(68.539429%, 49.324036%, 73.983765%)" offset="0.691406"/><stop stop-opacity="1" stop-color="rgb(68.362427%, 49.285889%, 74.313354%)" offset="0.695312"/><stop stop-opacity="1" stop-color="rgb(68.183899%, 49.246216%, 74.642944%)" offset="0.699219"/><stop stop-opacity="1" stop-color="rgb(68.006897%, 49.208069%, 74.972534%)" offset="0.703125"/><stop stop-opacity="1" stop-color="rgb(67.828369%, 49.169922%, 75.302124%)" offset="0.707031"/><stop stop-opacity="1" stop-color="rgb(67.651367%, 49.131775%, 75.631714%)" offset="0.710938"/><stop stop-opacity="1" stop-color="rgb(67.472839%, 49.093628%, 75.959778%)" offset="0.714844"/><stop stop-opacity="1" stop-color="rgb(67.295837%, 49.055481%, 76.289368%)" offset="0.71875"/><stop stop-opacity="1" stop-color="rgb(67.11731%, 49.017334%, 76.618958%)" offset="0.722656"/><stop stop-opacity="1" stop-color="rgb(66.940308%, 48.979187%, 76.948547%)" offset="0.726562"/><stop stop-opacity="1" stop-color="rgb(66.76178%, 48.94104%, 77.278137%)" offset="0.730469"/><stop stop-opacity="1" stop-color="rgb(66.584778%, 48.902893%, 77.607727%)" offset="0.734375"/><stop stop-opacity="1" stop-color="rgb(66.40625%, 48.86322%, 77.935791%)" offset="0.738281"/><stop stop-opacity="1" stop-color="rgb(66.229248%, 48.825073%, 78.265381%)" offset="0.742188"/><stop stop-opacity="1" stop-color="rgb(66.05072%, 48.786926%, 78.594971%)" offset="0.746094"/><stop stop-opacity="1" stop-color="rgb(65.873718%, 48.748779%, 78.924561%)" offset="0.75"/><stop stop-opacity="1" stop-color="rgb(65.69519%, 48.710632%, 79.252625%)" offset="0.753906"/><stop stop-opacity="1" stop-color="rgb(65.518188%, 48.672485%, 79.582214%)" offset="0.757812"/><stop stop-opacity="1" stop-color="rgb(65.339661%, 48.634338%, 79.911804%)" offset="0.761719"/><stop stop-opacity="1" stop-color="rgb(65.162659%, 48.596191%, 80.241394%)" offset="0.765625"/><stop stop-opacity="1" stop-color="rgb(64.984131%, 48.558044%, 80.570984%)" offset="0.769531"/><stop stop-opacity="1" stop-color="rgb(64.807129%, 48.519897%, 80.900574%)" offset="0.773438"/><stop stop-opacity="1" stop-color="rgb(64.628601%, 48.48175%, 81.228638%)" offset="0.777344"/><stop stop-opacity="1" stop-color="rgb(64.451599%, 48.443604%, 81.558228%)" offset="0.78125"/><stop stop-opacity="1" stop-color="rgb(64.274597%, 48.403931%, 81.887817%)" offset="0.785156"/><stop stop-opacity="1" stop-color="rgb(64.097595%, 48.365784%, 82.217407%)" offset="0.789062"/><stop stop-opacity="1" stop-color="rgb(63.919067%, 48.327637%, 82.545471%)" offset="0.792969"/><stop stop-opacity="1" stop-color="rgb(63.742065%, 48.28949%, 82.875061%)" offset="0.796875"/><stop stop-opacity="1" stop-color="rgb(63.563538%, 48.251343%, 83.204651%)" offset="0.800781"/><stop stop-opacity="1" stop-color="rgb(63.386536%, 48.213196%, 83.534241%)" offset="0.804688"/><stop stop-opacity="1" stop-color="rgb(63.208008%, 48.175049%, 83.863831%)" offset="0.808594"/><stop stop-opacity="1" stop-color="rgb(63.031006%, 48.136902%, 84.19342%)" offset="0.8125"/><stop stop-opacity="1" stop-color="rgb(62.852478%, 48.098755%, 84.521484%)" offset="0.816406"/><stop stop-opacity="1" stop-color="rgb(62.675476%, 48.060608%, 84.851074%)" offset="0.820312"/><stop stop-opacity="1" stop-color="rgb(62.496948%, 48.022461%, 85.180664%)" offset="0.824219"/><stop stop-opacity="1" stop-color="rgb(62.319946%, 47.984314%, 85.510254%)" offset="0.828125"/><stop stop-opacity="1" stop-color="rgb(62.141418%, 47.944641%, 85.839844%)" offset="0.832031"/><stop stop-opacity="1" stop-color="rgb(61.964417%, 47.906494%, 86.169434%)" offset="0.835938"/><stop stop-opacity="1" stop-color="rgb(61.785889%, 47.868347%, 86.497498%)" offset="0.839844"/><stop stop-opacity="1" stop-color="rgb(61.608887%, 47.8302%, 86.827087%)" offset="0.84375"/><stop stop-opacity="1" stop-color="rgb(61.430359%, 47.792053%, 87.156677%)" offset="0.847656"/><stop stop-opacity="1" stop-color="rgb(61.253357%, 47.753906%, 87.486267%)" offset="0.851562"/><stop stop-opacity="1" stop-color="rgb(61.074829%, 47.715759%, 87.814331%)" offset="0.855469"/><stop stop-opacity="1" stop-color="rgb(60.897827%, 47.677612%, 88.143921%)" offset="0.859375"/><stop stop-opacity="1" stop-color="rgb(60.719299%, 47.639465%, 88.473511%)" offset="0.863281"/><stop stop-opacity="1" stop-color="rgb(60.542297%, 47.601318%, 88.803101%)" offset="0.867188"/><stop stop-opacity="1" stop-color="rgb(60.36377%, 47.561646%, 89.13269%)" offset="0.871094"/><stop stop-opacity="1" stop-color="rgb(60.186768%, 47.523499%, 89.46228%)" offset="0.875"/><stop stop-opacity="1" stop-color="rgb(60.00824%, 47.485352%, 89.790344%)" offset="0.878906"/><stop stop-opacity="1" stop-color="rgb(59.831238%, 47.447205%, 90.119934%)" offset="0.882812"/><stop stop-opacity="1" stop-color="rgb(59.65271%, 47.409058%, 90.449524%)" offset="0.886719"/><stop stop-opacity="1" stop-color="rgb(59.475708%, 47.370911%, 90.779114%)" offset="0.890625"/><stop stop-opacity="1" stop-color="rgb(59.29718%, 47.332764%, 91.107178%)" offset="0.894531"/><stop stop-opacity="1" stop-color="rgb(59.120178%, 47.294617%, 91.436768%)" offset="0.898438"/><stop stop-opacity="1" stop-color="rgb(58.94165%, 47.25647%, 91.766357%)" offset="0.902344"/><stop stop-opacity="1" stop-color="rgb(58.764648%, 47.218323%, 92.095947%)" offset="0.90625"/><stop stop-opacity="1" stop-color="rgb(58.586121%, 47.180176%, 92.425537%)" offset="0.910156"/><stop stop-opacity="1" stop-color="rgb(58.409119%, 47.142029%, 92.755127%)" offset="0.914062"/><stop stop-opacity="1" stop-color="rgb(58.230591%, 47.102356%, 93.083191%)" offset="0.917969"/><stop stop-opacity="1" stop-color="rgb(58.053589%, 47.064209%, 93.412781%)" offset="0.921875"/><stop stop-opacity="1" stop-color="rgb(57.875061%, 47.026062%, 93.742371%)" offset="0.925781"/><stop stop-opacity="1" stop-color="rgb(57.698059%, 46.987915%, 94.07196%)" offset="0.929688"/><stop stop-opacity="1" stop-color="rgb(57.519531%, 46.949768%, 94.40155%)" offset="0.933594"/><stop stop-opacity="1" stop-color="rgb(57.342529%, 46.911621%, 94.73114%)" offset="0.9375"/><stop stop-opacity="1" stop-color="rgb(57.164001%, 46.873474%, 95.059204%)" offset="0.941406"/><stop stop-opacity="1" stop-color="rgb(56.987%, 46.835327%, 95.388794%)" offset="0.945312"/><stop stop-opacity="1" stop-color="rgb(56.808472%, 46.79718%, 95.718384%)" offset="0.949219"/><stop stop-opacity="1" stop-color="rgb(56.63147%, 46.759033%, 96.047974%)" offset="0.953125"/><stop stop-opacity="1" stop-color="rgb(56.452942%, 46.720886%, 96.376038%)" offset="0.957031"/><stop stop-opacity="1" stop-color="rgb(56.27594%, 46.682739%, 96.705627%)" offset="0.960938"/><stop stop-opacity="1" stop-color="rgb(56.097412%, 46.643066%, 97.035217%)" offset="0.964844"/><stop stop-opacity="1" stop-color="rgb(55.92041%, 46.604919%, 97.364807%)" offset="0.96875"/><stop stop-opacity="1" stop-color="rgb(55.741882%, 46.566772%, 97.694397%)" offset="0.972656"/><stop stop-opacity="1" stop-color="rgb(55.56488%, 46.528625%, 98.023987%)" offset="0.976562"/><stop stop-opacity="1" stop-color="rgb(55.387878%, 46.490479%, 98.352051%)" offset="0.980469"/><stop stop-opacity="1" stop-color="rgb(55.210876%, 46.452332%, 98.681641%)" offset="0.984375"/><stop stop-opacity="1" stop-color="rgb(55.032349%, 46.414185%, 99.01123%)" offset="0.988281"/><stop stop-opacity="1" stop-color="rgb(54.855347%, 46.376038%, 99.34082%)" offset="0.992188"/><stop stop-opacity="1" stop-color="rgb(54.676819%, 46.337891%, 99.668884%)" offset="0.996094"/><stop stop-opacity="1" stop-color="rgb(54.499817%, 46.299744%, 99.998474%)" offset="1"/></linearGradient><clipPath id="id7"><rect x="0" width="140" y="0" height="140"/></clipPath></defs><g clip-path="url(#id2)"><path fill="#ff8f28" d="M 92.230469 97.246094 C 48.363281 97.246094 13.023438 132.582031 13.023438 176.449219 C 13.023438 220.316406 48.363281 255.652344 92.230469 255.652344 C 135.691406 255.652344 171.433594 220.316406 171.433594 176.449219 C 171.433594 132.582031 135.691406 97.246094 92.230469 97.246094 Z M 92.230469 243.46875 C 55.265625 243.46875 25.210938 213.410156 25.210938 176.449219 C 25.210938 139.488281 55.265625 109.429688 92.230469 109.429688 C 129.191406 109.429688 159.25 139.488281 159.25 176.449219 C 159.25 213.410156 129.191406 243.46875 92.230469 243.46875 Z M 92.230469 243.46875 " fill-opacity="1" fill-rule="nonzero"/></g><path fill="#fbe5e9" d="M 92.230469 109.429688 C 55.265625 109.429688 25.210938 139.488281 25.210938 176.449219 C 25.210938 213.410156 55.265625 243.46875 92.230469 243.46875 C 129.191406 243.46875 159.25 213.410156 159.25 176.449219 C 159.25 139.488281 129.191406 109.429688 92.230469 109.429688 Z M 92.230469 109.429688 " fill-opacity="1" fill-rule="nonzero"/><g mask="url(#id3)"><g transform="matrix(1, 0, 0, 1, 22, 106)"><g clip-path="url(#id7)"><g clip-path="url(#id4)"><g clip-path="url(#id5)"><path fill="url(#id6)" d="M 139.429688 139.648438 L 139.429688 0.898438 L 0.679688 0.898438 L 0.679688 139.648438 Z M 139.429688 139.648438 " fill-rule="nonzero"/></g></g></g></g></g><g fill="#8b76ff" fill-opacity="0.4196"><g transform="translate(93.902569, 150.20501)"><g/></g></g><g fill="#f96565" fill-opacity="1"><g transform="translate(92.224222, 148.693819)"><g/></g></g><g fill="#8b76ff" fill-opacity="0.4196"><g transform="translate(40.054916, 195.205007)"><g><path d="M 11.75 0.453125 C 8.507812 0.453125 5.945312 -0.382812 4.0625 -2.0625 C 2.175781 -3.738281 1.234375 -5.96875 1.234375 -8.75 C 1.234375 -9.007812 1.273438 -9.476562 1.359375 -10.15625 L 1.578125 -11.90625 C 1.617188 -12.175781 1.722656 -12.382812 1.890625 -12.53125 C 2.054688 -12.6875 2.253906 -12.765625 2.484375 -12.765625 L 11.0625 -12.765625 C 11.289062 -12.765625 11.46875 -12.6875 11.59375 -12.53125 C 11.726562 -12.382812 11.78125 -12.175781 11.75 -11.90625 L 11.625 -10.671875 C 11.550781 -10.066406 11.625 -9.578125 11.84375 -9.203125 C 12.070312 -8.828125 12.414062 -8.640625 12.875 -8.640625 C 13.363281 -8.640625 13.773438 -8.84375 14.109375 -9.25 C 14.453125 -9.664062 14.625 -10.175781 14.625 -10.78125 C 14.625 -11.34375 14.347656 -11.925781 13.796875 -12.53125 C 13.253906 -13.132812 12.210938 -14.054688 10.671875 -15.296875 C 9.160156 -16.535156 7.914062 -17.632812 6.9375 -18.59375 C 5.957031 -19.5625 5.109375 -20.75 4.390625 -22.15625 C 3.679688 -23.570312 3.328125 -25.179688 3.328125 -26.984375 C 3.328125 -27.328125 3.363281 -27.910156 3.4375 -28.734375 C 3.851562 -32.085938 5.242188 -34.796875 7.609375 -36.859375 C 9.984375 -38.929688 12.941406 -39.96875 16.484375 -39.96875 C 19.722656 -39.96875 22.269531 -39.101562 24.125 -37.375 C 25.988281 -35.644531 26.921875 -33.3125 26.921875 -30.375 C 26.921875 -30.03125 26.882812 -29.484375 26.8125 -28.734375 L 26.640625 -27.5 C 26.609375 -27.226562 26.503906 -27.015625 26.328125 -26.859375 C 26.160156 -26.710938 25.96875 -26.640625 25.75 -26.640625 L 17.21875 -26.640625 C 16.988281 -26.640625 16.804688 -26.710938 16.671875 -26.859375 C 16.546875 -27.015625 16.503906 -27.226562 16.546875 -27.5 L 16.703125 -28.953125 C 16.742188 -29.523438 16.640625 -29.988281 16.390625 -30.34375 C 16.148438 -30.695312 15.804688 -30.875 15.359375 -30.875 C 14.828125 -30.875 14.390625 -30.648438 14.046875 -30.203125 C 13.710938 -29.753906 13.546875 -29.148438 13.546875 -28.390625 C 13.546875 -27.753906 13.804688 -27.097656 14.328125 -26.421875 C 14.859375 -25.742188 15.84375 -24.800781 17.28125 -23.59375 C 19.195312 -21.976562 20.660156 -20.671875 21.671875 -19.671875 C 22.691406 -18.671875 23.492188 -17.578125 24.078125 -16.390625 C 24.660156 -15.210938 24.953125 -13.867188 24.953125 -12.359375 C 24.953125 -12.054688 24.914062 -11.53125 24.84375 -10.78125 C 24.382812 -7.351562 22.960938 -4.625 20.578125 -2.59375 C 18.191406 -0.5625 15.25 0.453125 11.75 0.453125 Z M 11.75 0.453125 "/></g></g></g><g fill="#8b76ff" fill-opacity="0.4196"><g transform="translate(65.400625, 195.205007)"><g><path d="M 12.078125 0.453125 C 8.734375 0.453125 6.097656 -0.457031 4.171875 -2.28125 C 2.253906 -4.113281 1.296875 -6.585938 1.296875 -9.703125 C 1.296875 -10.085938 1.332031 -10.726562 1.40625 -11.625 L 3.4375 -27.890625 C 3.894531 -31.578125 5.351562 -34.507812 7.8125 -36.6875 C 10.28125 -38.875 13.359375 -39.96875 17.046875 -39.96875 C 20.359375 -39.96875 22.984375 -39.054688 24.921875 -37.234375 C 26.859375 -35.410156 27.828125 -32.9375 27.828125 -29.8125 C 27.828125 -29.4375 27.789062 -28.796875 27.71875 -27.890625 L 25.75 -11.625 C 25.289062 -7.9375 23.816406 -5 21.328125 -2.8125 C 18.847656 -0.632812 15.765625 0.453125 12.078125 0.453125 Z M 13.203125 -8.640625 C 13.773438 -8.640625 14.257812 -8.863281 14.65625 -9.3125 C 15.050781 -9.769531 15.300781 -10.390625 15.40625 -11.171875 L 17.5 -28.34375 C 17.570312 -29.132812 17.476562 -29.753906 17.21875 -30.203125 C 16.957031 -30.648438 16.539062 -30.875 15.96875 -30.875 C 15.375 -30.875 14.878906 -30.648438 14.484375 -30.203125 C 14.085938 -29.753906 13.851562 -29.132812 13.78125 -28.34375 L 11.6875 -11.171875 C 11.644531 -11.023438 11.625 -10.820312 11.625 -10.5625 C 11.625 -9.957031 11.765625 -9.484375 12.046875 -9.140625 C 12.328125 -8.804688 12.710938 -8.640625 13.203125 -8.640625 Z M 13.203125 -8.640625 "/></g></g></g><g fill="#8b76ff" fill-opacity="0.4196"><g transform="translate(91.875317, 195.205007)"><g><path d="M 17.5625 0 C 17.03125 0 16.785156 -0.265625 16.828125 -0.796875 L 16.703125 -5.078125 C 16.742188 -5.148438 16.726562 -5.210938 16.65625 -5.265625 C 16.582031 -5.328125 16.503906 -5.359375 16.421875 -5.359375 L 11.515625 -5.359375 C 11.328125 -5.359375 11.195312 -5.265625 11.125 -5.078125 L 10.046875 -0.796875 C 9.929688 -0.265625 9.613281 0 9.09375 0 L 0.515625 0 C -0.0546875 0 -0.265625 -0.300781 -0.109375 -0.90625 L 12.3125 -38.78125 C 12.457031 -39.269531 12.796875 -39.515625 13.328125 -39.515625 L 23.3125 -39.515625 C 23.84375 -39.515625 24.125 -39.269531 24.15625 -38.78125 L 27.265625 -0.90625 L 27.265625 -0.796875 C 27.265625 -0.265625 26.984375 0 26.421875 0 Z M 13.4375 -13.78125 C 13.363281 -13.59375 13.421875 -13.5 13.609375 -13.5 L 16.265625 -13.5 C 16.367188 -13.5 16.460938 -13.59375 16.546875 -13.78125 L 16.3125 -24.21875 C 16.3125 -24.363281 16.265625 -24.425781 16.171875 -24.40625 C 16.078125 -24.394531 16.03125 -24.332031 16.03125 -24.21875 Z M 13.4375 -13.78125 "/></g></g></g><g fill="#8b76ff" fill-opacity="0.4196"><g transform="translate(120.946673, 195.205007)"><g><path d="M 15.296875 0 C 14.847656 0 14.585938 -0.242188 14.515625 -0.734375 L 12.875 -14.953125 C 12.875 -15.109375 12.816406 -15.1875 12.703125 -15.1875 C 12.546875 -15.1875 12.46875 -15.09375 12.46875 -14.90625 L 10.71875 -0.84375 C 10.6875 -0.582031 10.582031 -0.375 10.40625 -0.21875 C 10.238281 -0.0703125 10.046875 0 9.828125 0 L 1.125 0 C 0.90625 0 0.726562 -0.0703125 0.59375 -0.21875 C 0.457031 -0.375 0.410156 -0.582031 0.453125 -0.84375 L 5.078125 -38.671875 C 5.117188 -38.929688 5.222656 -39.132812 5.390625 -39.28125 C 5.554688 -39.4375 5.753906 -39.515625 5.984375 -39.515625 L 18.34375 -39.515625 C 21.351562 -39.515625 23.734375 -38.554688 25.484375 -36.640625 C 27.234375 -34.722656 28.109375 -32.179688 28.109375 -29.015625 C 28.109375 -28.109375 28.070312 -27.410156 28 -26.921875 C 27.738281 -24.859375 27.15625 -23.003906 26.25 -21.359375 C 25.34375 -19.722656 24.175781 -18.398438 22.75 -17.390625 C 22.5625 -17.273438 22.503906 -17.144531 22.578125 -17 L 25.015625 -0.953125 L 25.015625 -0.734375 C 25.015625 -0.503906 24.9375 -0.320312 24.78125 -0.1875 C 24.632812 -0.0625 24.445312 0 24.21875 0 Z M 14.625 -30.421875 C 14.4375 -30.421875 14.34375 -30.328125 14.34375 -30.140625 L 13.5 -23.546875 C 13.5 -23.359375 13.59375 -23.265625 13.78125 -23.265625 L 14.515625 -23.265625 C 15.410156 -23.265625 16.164062 -23.65625 16.78125 -24.4375 C 17.40625 -25.226562 17.71875 -26.320312 17.71875 -27.71875 C 17.71875 -28.582031 17.507812 -29.25 17.09375 -29.71875 C 16.6875 -30.1875 16.125 -30.421875 15.40625 -30.421875 Z M 14.625 -30.421875 "/></g></g></g><g fill="#f96565" fill-opacity="1"><g transform="translate(38.376569, 193.693816)"><g><path d="M 11.75 0.453125 C 8.507812 0.453125 5.945312 -0.382812 4.0625 -2.0625 C 2.175781 -3.738281 1.234375 -5.96875 1.234375 -8.75 C 1.234375 -9.007812 1.273438 -9.476562 1.359375 -10.15625 L 1.578125 -11.90625 C 1.617188 -12.175781 1.722656 -12.382812 1.890625 -12.53125 C 2.054688 -12.6875 2.253906 -12.765625 2.484375 -12.765625 L 11.0625 -12.765625 C 11.289062 -12.765625 11.46875 -12.6875 11.59375 -12.53125 C 11.726562 -12.382812 11.78125 -12.175781 11.75 -11.90625 L 11.625 -10.671875 C 11.550781 -10.066406 11.625 -9.578125 11.84375 -9.203125 C 12.070312 -8.828125 12.414062 -8.640625 12.875 -8.640625 C 13.363281 -8.640625 13.773438 -8.84375 14.109375 -9.25 C 14.453125 -9.664062 14.625 -10.175781 14.625 -10.78125 C 14.625 -11.34375 14.347656 -11.925781 13.796875 -12.53125 C 13.253906 -13.132812 12.210938 -14.054688 10.671875 -15.296875 C 9.160156 -16.535156 7.914062 -17.632812 6.9375 -18.59375 C 5.957031 -19.5625 5.109375 -20.75 4.390625 -22.15625 C 3.679688 -23.570312 3.328125 -25.179688 3.328125 -26.984375 C 3.328125 -27.328125 3.363281 -27.910156 3.4375 -28.734375 C 3.851562 -32.085938 5.242188 -34.796875 7.609375 -36.859375 C 9.984375 -38.929688 12.941406 -39.96875 16.484375 -39.96875 C 19.722656 -39.96875 22.269531 -39.101562 24.125 -37.375 C 25.988281 -35.644531 26.921875 -33.3125 26.921875 -30.375 C 26.921875 -30.03125 26.882812 -29.484375 26.8125 -28.734375 L 26.640625 -27.5 C 26.609375 -27.226562 26.503906 -27.015625 26.328125 -26.859375 C 26.160156 -26.710938 25.96875 -26.640625 25.75 -26.640625 L 17.21875 -26.640625 C 16.988281 -26.640625 16.804688 -26.710938 16.671875 -26.859375 C 16.546875 -27.015625 16.503906 -27.226562 16.546875 -27.5 L 16.703125 -28.953125 C 16.742188 -29.523438 16.640625 -29.988281 16.390625 -30.34375 C 16.148438 -30.695312 15.804688 -30.875 15.359375 -30.875 C 14.828125 -30.875 14.390625 -30.648438 14.046875 -30.203125 C 13.710938 -29.753906 13.546875 -29.148438 13.546875 -28.390625 C 13.546875 -27.753906 13.804688 -27.097656 14.328125 -26.421875 C 14.859375 -25.742188 15.84375 -24.800781 17.28125 -23.59375 C 19.195312 -21.976562 20.660156 -20.671875 21.671875 -19.671875 C 22.691406 -18.671875 23.492188 -17.578125 24.078125 -16.390625 C 24.660156 -15.210938 24.953125 -13.867188 24.953125 -12.359375 C 24.953125 -12.054688 24.914062 -11.53125 24.84375 -10.78125 C 24.382812 -7.351562 22.960938 -4.625 20.578125 -2.59375 C 18.191406 -0.5625 15.25 0.453125 11.75 0.453125 Z M 11.75 0.453125 "/></g></g></g><g fill="#f96565" fill-opacity="1"><g transform="translate(63.722278, 193.693816)"><g><path d="M 12.078125 0.453125 C 8.734375 0.453125 6.097656 -0.457031 4.171875 -2.28125 C 2.253906 -4.113281 1.296875 -6.585938 1.296875 -9.703125 C 1.296875 -10.085938 1.332031 -10.726562 1.40625 -11.625 L 3.4375 -27.890625 C 3.894531 -31.578125 5.351562 -34.507812 7.8125 -36.6875 C 10.28125 -38.875 13.359375 -39.96875 17.046875 -39.96875 C 20.359375 -39.96875 22.984375 -39.054688 24.921875 -37.234375 C 26.859375 -35.410156 27.828125 -32.9375 27.828125 -29.8125 C 27.828125 -29.4375 27.789062 -28.796875 27.71875 -27.890625 L 25.75 -11.625 C 25.289062 -7.9375 23.816406 -5 21.328125 -2.8125 C 18.847656 -0.632812 15.765625 0.453125 12.078125 0.453125 Z M 13.203125 -8.640625 C 13.773438 -8.640625 14.257812 -8.863281 14.65625 -9.3125 C 15.050781 -9.769531 15.300781 -10.390625 15.40625 -11.171875 L 17.5 -28.34375 C 17.570312 -29.132812 17.476562 -29.753906 17.21875 -30.203125 C 16.957031 -30.648438 16.539062 -30.875 15.96875 -30.875 C 15.375 -30.875 14.878906 -30.648438 14.484375 -30.203125 C 14.085938 -29.753906 13.851562 -29.132812 13.78125 -28.34375 L 11.6875 -11.171875 C 11.644531 -11.023438 11.625 -10.820312 11.625 -10.5625 C 11.625 -9.957031 11.765625 -9.484375 12.046875 -9.140625 C 12.328125 -8.804688 12.710938 -8.640625 13.203125 -8.640625 Z M 13.203125 -8.640625 "/></g></g></g><g fill="#f96565" fill-opacity="1"><g transform="translate(90.19697, 193.693816)"><g><path d="M 17.5625 0 C 17.03125 0 16.785156 -0.265625 16.828125 -0.796875 L 16.703125 -5.078125 C 16.742188 -5.148438 16.726562 -5.210938 16.65625 -5.265625 C 16.582031 -5.328125 16.503906 -5.359375 16.421875 -5.359375 L 11.515625 -5.359375 C 11.328125 -5.359375 11.195312 -5.265625 11.125 -5.078125 L 10.046875 -0.796875 C 9.929688 -0.265625 9.613281 0 9.09375 0 L 0.515625 0 C -0.0546875 0 -0.265625 -0.300781 -0.109375 -0.90625 L 12.3125 -38.78125 C 12.457031 -39.269531 12.796875 -39.515625 13.328125 -39.515625 L 23.3125 -39.515625 C 23.84375 -39.515625 24.125 -39.269531 24.15625 -38.78125 L 27.265625 -0.90625 L 27.265625 -0.796875 C 27.265625 -0.265625 26.984375 0 26.421875 0 Z M 13.4375 -13.78125 C 13.363281 -13.59375 13.421875 -13.5 13.609375 -13.5 L 16.265625 -13.5 C 16.367188 -13.5 16.460938 -13.59375 16.546875 -13.78125 L 16.3125 -24.21875 C 16.3125 -24.363281 16.265625 -24.425781 16.171875 -24.40625 C 16.078125 -24.394531 16.03125 -24.332031 16.03125 -24.21875 Z M 13.4375 -13.78125 "/></g></g></g><g fill="#f96565" fill-opacity="1"><g transform="translate(119.268325, 193.693816)"><g><path d="M 15.296875 0 C 14.847656 0 14.585938 -0.242188 14.515625 -0.734375 L 12.875 -14.953125 C 12.875 -15.109375 12.816406 -15.1875 12.703125 -15.1875 C 12.546875 -15.1875 12.46875 -15.09375 12.46875 -14.90625 L 10.71875 -0.84375 C 10.6875 -0.582031 10.582031 -0.375 10.40625 -0.21875 C 10.238281 -0.0703125 10.046875 0 9.828125 0 L 1.125 0 C 0.90625 0 0.726562 -0.0703125 0.59375 -0.21875 C 0.457031 -0.375 0.410156 -0.582031 0.453125 -0.84375 L 5.078125 -38.671875 C 5.117188 -38.929688 5.222656 -39.132812 5.390625 -39.28125 C 5.554688 -39.4375 5.753906 -39.515625 5.984375 -39.515625 L 18.34375 -39.515625 C 21.351562 -39.515625 23.734375 -38.554688 25.484375 -36.640625 C 27.234375 -34.722656 28.109375 -32.179688 28.109375 -29.015625 C 28.109375 -28.109375 28.070312 -27.410156 28 -26.921875 C 27.738281 -24.859375 27.15625 -23.003906 26.25 -21.359375 C 25.34375 -19.722656 24.175781 -18.398438 22.75 -17.390625 C 22.5625 -17.273438 22.503906 -17.144531 22.578125 -17 L 25.015625 -0.953125 L 25.015625 -0.734375 C 25.015625 -0.503906 24.9375 -0.320312 24.78125 -0.1875 C 24.632812 -0.0625 24.445312 0 24.21875 0 Z M 14.625 -30.421875 C 14.4375 -30.421875 14.34375 -30.328125 14.34375 -30.140625 L 13.5 -23.546875 C 13.5 -23.359375 13.59375 -23.265625 13.78125 -23.265625 L 14.515625 -23.265625 C 15.410156 -23.265625 16.164062 -23.65625 16.78125 -24.4375 C 17.40625 -25.226562 17.71875 -26.320312 17.71875 -27.71875 C 17.71875 -28.582031 17.507812 -29.25 17.09375 -29.71875 C 16.6875 -30.1875 16.125 -30.421875 15.40625 -30.421875 Z M 14.625 -30.421875 "/></g></g></g><g fill="#8b76ff" fill-opacity="0.4196"><g transform="translate(271.516438, 150.20501)"><g/></g></g><g fill="#f96565" fill-opacity="1"><g transform="translate(269.838091, 148.693819)"><g/></g></g><g fill="#8b76ff" fill-opacity="0.4196"><g transform="translate(174.590663, 195.205007)"><g><path d="M 17.5625 0 C 17.03125 0 16.785156 -0.265625 16.828125 -0.796875 L 16.703125 -5.078125 C 16.742188 -5.148438 16.726562 -5.210938 16.65625 -5.265625 C 16.582031 -5.328125 16.503906 -5.359375 16.421875 -5.359375 L 11.515625 -5.359375 C 11.328125 -5.359375 11.195312 -5.265625 11.125 -5.078125 L 10.046875 -0.796875 C 9.929688 -0.265625 9.613281 0 9.09375 0 L 0.515625 0 C -0.0546875 0 -0.265625 -0.300781 -0.109375 -0.90625 L 12.3125 -38.78125 C 12.457031 -39.269531 12.796875 -39.515625 13.328125 -39.515625 L 23.3125 -39.515625 C 23.84375 -39.515625 24.125 -39.269531 24.15625 -38.78125 L 27.265625 -0.90625 L 27.265625 -0.796875 C 27.265625 -0.265625 26.984375 0 26.421875 0 Z M 13.4375 -13.78125 C 13.363281 -13.59375 13.421875 -13.5 13.609375 -13.5 L 16.265625 -13.5 C 16.367188 -13.5 16.460938 -13.59375 16.546875 -13.78125 L 16.3125 -24.21875 C 16.3125 -24.363281 16.265625 -24.425781 16.171875 -24.40625 C 16.078125 -24.394531 16.03125 -24.332031 16.03125 -24.21875 Z M 13.4375 -13.78125 "/></g></g></g><g fill="#8b76ff" fill-opacity="0.4196"><g transform="translate(203.662018, 195.205007)"><g><path d="M 11.90625 0.453125 C 8.632812 0.453125 6.046875 -0.445312 4.140625 -2.25 C 2.242188 -4.0625 1.296875 -6.53125 1.296875 -9.65625 C 1.296875 -10.03125 1.332031 -10.671875 1.40625 -11.578125 L 3.4375 -28.0625 C 3.894531 -31.707031 5.34375 -34.601562 7.78125 -36.75 C 10.226562 -38.894531 13.257812 -39.96875 16.875 -39.96875 C 20.15625 -39.96875 22.753906 -39.070312 24.671875 -37.28125 C 26.585938 -35.5 27.546875 -33.046875 27.546875 -29.921875 C 27.546875 -29.578125 27.507812 -28.957031 27.4375 -28.0625 L 27.375 -27.78125 C 27.34375 -27.507812 27.238281 -27.289062 27.0625 -27.125 C 26.894531 -26.957031 26.703125 -26.875 26.484375 -26.875 L 17.78125 -26.59375 C 17.21875 -26.59375 16.972656 -26.851562 17.046875 -27.375 L 17.21875 -28.796875 C 17.289062 -29.429688 17.195312 -29.9375 16.9375 -30.3125 C 16.675781 -30.6875 16.300781 -30.875 15.8125 -30.875 C 15.28125 -30.875 14.832031 -30.6875 14.46875 -30.3125 C 14.113281 -29.9375 13.898438 -29.429688 13.828125 -28.796875 L 11.625 -10.671875 C 11.550781 -10.066406 11.632812 -9.578125 11.875 -9.203125 C 12.125 -8.828125 12.515625 -8.640625 13.046875 -8.640625 C 13.566406 -8.640625 14.003906 -8.816406 14.359375 -9.171875 C 14.722656 -9.523438 14.941406 -10.023438 15.015625 -10.671875 L 15.1875 -12.1875 C 15.226562 -12.457031 15.332031 -12.65625 15.5 -12.78125 C 15.664062 -12.914062 15.863281 -12.984375 16.09375 -12.984375 L 24.71875 -12.703125 C 24.988281 -12.703125 25.1875 -12.613281 25.3125 -12.4375 C 25.445312 -12.269531 25.492188 -12.054688 25.453125 -11.796875 L 25.40625 -11.578125 C 24.945312 -7.921875 23.484375 -5 21.015625 -2.8125 C 18.554688 -0.632812 15.519531 0.453125 11.90625 0.453125 Z M 11.90625 0.453125 "/></g></g></g><g fill="#8b76ff" fill-opacity="0.4196"><g transform="translate(229.741569, 195.205007)"><g><path d="M 17.5625 0 C 17.03125 0 16.785156 -0.265625 16.828125 -0.796875 L 16.703125 -5.078125 C 16.742188 -5.148438 16.726562 -5.210938 16.65625 -5.265625 C 16.582031 -5.328125 16.503906 -5.359375 16.421875 -5.359375 L 11.515625 -5.359375 C 11.328125 -5.359375 11.195312 -5.265625 11.125 -5.078125 L 10.046875 -0.796875 C 9.929688 -0.265625 9.613281 0 9.09375 0 L 0.515625 0 C -0.0546875 0 -0.265625 -0.300781 -0.109375 -0.90625 L 12.3125 -38.78125 C 12.457031 -39.269531 12.796875 -39.515625 13.328125 -39.515625 L 23.3125 -39.515625 C 23.84375 -39.515625 24.125 -39.269531 24.15625 -38.78125 L 27.265625 -0.90625 L 27.265625 -0.796875 C 27.265625 -0.265625 26.984375 0 26.421875 0 Z M 13.4375 -13.78125 C 13.363281 -13.59375 13.421875 -13.5 13.609375 -13.5 L 16.265625 -13.5 C 16.367188 -13.5 16.460938 -13.59375 16.546875 -13.78125 L 16.3125 -24.21875 C 16.3125 -24.363281 16.265625 -24.425781 16.171875 -24.40625 C 16.078125 -24.394531 16.03125 -24.332031 16.03125 -24.21875 Z M 13.4375 -13.78125 "/></g></g></g><g fill="#8b76ff" fill-opacity="0.4196"><g transform="translate(258.812924, 195.205007)"><g><path d="M 1.125 0 C 0.90625 0 0.726562 -0.0703125 0.59375 -0.21875 C 0.457031 -0.375 0.410156 -0.582031 0.453125 -0.84375 L 5.078125 -38.671875 C 5.117188 -38.929688 5.222656 -39.132812 5.390625 -39.28125 C 5.554688 -39.4375 5.753906 -39.515625 5.984375 -39.515625 L 16.765625 -39.515625 C 20.117188 -39.515625 22.78125 -38.640625 24.75 -36.890625 C 26.726562 -35.140625 27.71875 -32.796875 27.71875 -29.859375 C 27.71875 -29.523438 27.679688 -28.984375 27.609375 -28.234375 L 25.515625 -11.296875 C 25.253906 -9.066406 24.507812 -7.097656 23.28125 -5.390625 C 22.0625 -3.679688 20.460938 -2.351562 18.484375 -1.40625 C 16.515625 -0.46875 14.320312 0 11.90625 0 Z M 11.796875 -9.375 C 11.722656 -9.1875 11.800781 -9.09375 12.03125 -9.09375 L 12.8125 -9.140625 C 13.414062 -9.179688 13.953125 -9.460938 14.421875 -9.984375 C 14.890625 -10.515625 15.203125 -11.195312 15.359375 -12.03125 L 17.21875 -27.546875 L 17.28125 -28.171875 C 17.28125 -28.890625 17.109375 -29.441406 16.765625 -29.828125 C 16.429688 -30.222656 15.976562 -30.421875 15.40625 -30.421875 L 14.625 -30.421875 C 14.4375 -30.421875 14.34375 -30.328125 14.34375 -30.140625 Z M 11.796875 -9.375 "/></g></g></g><g fill="#8b76ff" fill-opacity="0.4196"><g transform="translate(285.287616, 195.205007)"><g><path d="M 26.078125 -31.28125 C 26.046875 -31.007812 25.941406 -30.796875 25.765625 -30.640625 C 25.597656 -30.492188 25.382812 -30.421875 25.125 -30.421875 L 14.625 -30.421875 C 14.4375 -30.421875 14.34375 -30.328125 14.34375 -30.140625 L 13.65625 -24.609375 C 13.582031 -24.421875 13.660156 -24.328125 13.890625 -24.328125 L 19.359375 -24.328125 C 19.628906 -24.328125 19.828125 -24.25 19.953125 -24.09375 C 20.085938 -23.945312 20.132812 -23.742188 20.09375 -23.484375 L 19.1875 -16.09375 C 19.082031 -15.53125 18.765625 -15.25 18.234375 -15.25 L 12.765625 -15.25 C 12.566406 -15.25 12.46875 -15.148438 12.46875 -14.953125 L 11.796875 -9.375 C 11.722656 -9.1875 11.800781 -9.09375 12.03125 -9.09375 L 22.53125 -9.09375 C 22.789062 -9.09375 22.984375 -9.015625 23.109375 -8.859375 C 23.242188 -8.710938 23.296875 -8.503906 23.265625 -8.234375 L 22.359375 -0.84375 C 22.316406 -0.582031 22.210938 -0.375 22.046875 -0.21875 C 21.878906 -0.0703125 21.660156 0 21.390625 0 L 1.125 0 C 0.90625 0 0.726562 -0.0703125 0.59375 -0.21875 C 0.457031 -0.375 0.410156 -0.582031 0.453125 -0.84375 L 5.078125 -38.671875 C 5.117188 -38.929688 5.222656 -39.132812 5.390625 -39.28125 C 5.554688 -39.4375 5.753906 -39.515625 5.984375 -39.515625 L 26.25 -39.515625 C 26.507812 -39.515625 26.707031 -39.4375 26.84375 -39.28125 C 26.976562 -39.132812 27.023438 -38.929688 26.984375 -38.671875 Z M 26.078125 -31.28125 "/></g></g></g><g fill="#8b76ff" fill-opacity="0.4196"><g transform="translate(309.617238, 195.205007)"><g><path d="M 23.203125 -38.890625 C 23.429688 -39.304688 23.769531 -39.515625 24.21875 -39.515625 L 32.796875 -39.515625 C 33.023438 -39.515625 33.203125 -39.4375 33.328125 -39.28125 C 33.460938 -39.132812 33.515625 -38.929688 33.484375 -38.671875 L 28.84375 -0.84375 C 28.8125 -0.582031 28.707031 -0.375 28.53125 -0.21875 C 28.363281 -0.0703125 28.164062 0 27.9375 0 L 19.25 0 C 19.019531 0 18.835938 -0.0703125 18.703125 -0.21875 C 18.578125 -0.375 18.535156 -0.582031 18.578125 -0.84375 L 21.390625 -23.9375 C 21.429688 -24.082031 21.40625 -24.164062 21.3125 -24.1875 C 21.21875 -24.207031 21.132812 -24.160156 21.0625 -24.046875 L 17.21875 -18.515625 L 16.546875 -17.5 L 16.484375 -17.5 L 13.609375 -24.046875 C 13.566406 -24.160156 13.507812 -24.207031 13.4375 -24.1875 C 13.363281 -24.164062 13.304688 -24.082031 13.265625 -23.9375 L 10.4375 -0.84375 C 10.40625 -0.582031 10.3125 -0.375 10.15625 -0.21875 C 10.007812 -0.0703125 9.804688 0 9.546875 0 L 0.90625 0 C 0.644531 0 0.445312 -0.0703125 0.3125 -0.21875 C 0.175781 -0.375 0.128906 -0.582031 0.171875 -0.84375 L 4.796875 -38.671875 C 4.835938 -38.929688 4.941406 -39.132812 5.109375 -39.28125 C 5.273438 -39.4375 5.472656 -39.515625 5.703125 -39.515625 L 14.28125 -39.515625 C 14.726562 -39.515625 15.03125 -39.304688 15.1875 -38.890625 L 18.171875 -31.5625 C 18.253906 -31.40625 18.367188 -31.40625 18.515625 -31.5625 Z M 23.203125 -38.890625 "/></g></g></g><g fill="#8b76ff" fill-opacity="0.4196"><g transform="translate(340.607872, 195.205007)"><g><path d="M 8.46875 -0.109375 C 8.207031 -0.109375 8.007812 -0.179688 7.875 -0.328125 C 7.738281 -0.484375 7.691406 -0.691406 7.734375 -0.953125 L 9.3125 -14 C 9.351562 -14.070312 9.351562 -14.1875 9.3125 -14.34375 L 4.625 -38.5625 L 4.625 -38.78125 C 4.625 -39.269531 4.890625 -39.515625 5.421875 -39.515625 L 14.515625 -39.515625 C 15.035156 -39.515625 15.316406 -39.269531 15.359375 -38.78125 L 16.03125 -27.4375 C 16.03125 -27.320312 16.078125 -27.265625 16.171875 -27.265625 C 16.265625 -27.265625 16.332031 -27.320312 16.375 -27.4375 L 19.8125 -38.78125 C 19.96875 -39.269531 20.304688 -39.515625 20.828125 -39.515625 L 29.921875 -39.515625 C 30.222656 -39.515625 30.421875 -39.429688 30.515625 -39.265625 C 30.609375 -39.097656 30.597656 -38.863281 30.484375 -38.5625 L 19.703125 -14.34375 L 19.640625 -14 L 18.015625 -0.953125 C 17.972656 -0.691406 17.875 -0.484375 17.71875 -0.328125 C 17.570312 -0.179688 17.367188 -0.109375 17.109375 -0.109375 Z M 8.46875 -0.109375 "/></g></g></g><g fill="#8b76ff" fill-opacity="1"><g transform="translate(172.912316, 193.693816)"><g><path d="M 17.5625 0 C 17.03125 0 16.785156 -0.265625 16.828125 -0.796875 L 16.703125 -5.078125 C 16.742188 -5.148438 16.726562 -5.210938 16.65625 -5.265625 C 16.582031 -5.328125 16.503906 -5.359375 16.421875 -5.359375 L 11.515625 -5.359375 C 11.328125 -5.359375 11.195312 -5.265625 11.125 -5.078125 L 10.046875 -0.796875 C 9.929688 -0.265625 9.613281 0 9.09375 0 L 0.515625 0 C -0.0546875 0 -0.265625 -0.300781 -0.109375 -0.90625 L 12.3125 -38.78125 C 12.457031 -39.269531 12.796875 -39.515625 13.328125 -39.515625 L 23.3125 -39.515625 C 23.84375 -39.515625 24.125 -39.269531 24.15625 -38.78125 L 27.265625 -0.90625 L 27.265625 -0.796875 C 27.265625 -0.265625 26.984375 0 26.421875 0 Z M 13.4375 -13.78125 C 13.363281 -13.59375 13.421875 -13.5 13.609375 -13.5 L 16.265625 -13.5 C 16.367188 -13.5 16.460938 -13.59375 16.546875 -13.78125 L 16.3125 -24.21875 C 16.3125 -24.363281 16.265625 -24.425781 16.171875 -24.40625 C 16.078125 -24.394531 16.03125 -24.332031 16.03125 -24.21875 Z M 13.4375 -13.78125 "/></g></g></g><g fill="#8b76ff" fill-opacity="1"><g transform="translate(201.983672, 193.693816)"><g><path d="M 11.90625 0.453125 C 8.632812 0.453125 6.046875 -0.445312 4.140625 -2.25 C 2.242188 -4.0625 1.296875 -6.53125 1.296875 -9.65625 C 1.296875 -10.03125 1.332031 -10.671875 1.40625 -11.578125 L 3.4375 -28.0625 C 3.894531 -31.707031 5.34375 -34.601562 7.78125 -36.75 C 10.226562 -38.894531 13.257812 -39.96875 16.875 -39.96875 C 20.15625 -39.96875 22.753906 -39.070312 24.671875 -37.28125 C 26.585938 -35.5 27.546875 -33.046875 27.546875 -29.921875 C 27.546875 -29.578125 27.507812 -28.957031 27.4375 -28.0625 L 27.375 -27.78125 C 27.34375 -27.507812 27.238281 -27.289062 27.0625 -27.125 C 26.894531 -26.957031 26.703125 -26.875 26.484375 -26.875 L 17.78125 -26.59375 C 17.21875 -26.59375 16.972656 -26.851562 17.046875 -27.375 L 17.21875 -28.796875 C 17.289062 -29.429688 17.195312 -29.9375 16.9375 -30.3125 C 16.675781 -30.6875 16.300781 -30.875 15.8125 -30.875 C 15.28125 -30.875 14.832031 -30.6875 14.46875 -30.3125 C 14.113281 -29.9375 13.898438 -29.429688 13.828125 -28.796875 L 11.625 -10.671875 C 11.550781 -10.066406 11.632812 -9.578125 11.875 -9.203125 C 12.125 -8.828125 12.515625 -8.640625 13.046875 -8.640625 C 13.566406 -8.640625 14.003906 -8.816406 14.359375 -9.171875 C 14.722656 -9.523438 14.941406 -10.023438 15.015625 -10.671875 L 15.1875 -12.1875 C 15.226562 -12.457031 15.332031 -12.65625 15.5 -12.78125 C 15.664062 -12.914062 15.863281 -12.984375 16.09375 -12.984375 L 24.71875 -12.703125 C 24.988281 -12.703125 25.1875 -12.613281 25.3125 -12.4375 C 25.445312 -12.269531 25.492188 -12.054688 25.453125 -11.796875 L 25.40625 -11.578125 C 24.945312 -7.921875 23.484375 -5 21.015625 -2.8125 C 18.554688 -0.632812 15.519531 0.453125 11.90625 0.453125 Z M 11.90625 0.453125 "/></g></g></g><g fill="#8b76ff" fill-opacity="1"><g transform="translate(228.063222, 193.693816)"><g><path d="M 17.5625 0 C 17.03125 0 16.785156 -0.265625 16.828125 -0.796875 L 16.703125 -5.078125 C 16.742188 -5.148438 16.726562 -5.210938 16.65625 -5.265625 C 16.582031 -5.328125 16.503906 -5.359375 16.421875 -5.359375 L 11.515625 -5.359375 C 11.328125 -5.359375 11.195312 -5.265625 11.125 -5.078125 L 10.046875 -0.796875 C 9.929688 -0.265625 9.613281 0 9.09375 0 L 0.515625 0 C -0.0546875 0 -0.265625 -0.300781 -0.109375 -0.90625 L 12.3125 -38.78125 C 12.457031 -39.269531 12.796875 -39.515625 13.328125 -39.515625 L 23.3125 -39.515625 C 23.84375 -39.515625 24.125 -39.269531 24.15625 -38.78125 L 27.265625 -0.90625 L 27.265625 -0.796875 C 27.265625 -0.265625 26.984375 0 26.421875 0 Z M 13.4375 -13.78125 C 13.363281 -13.59375 13.421875 -13.5 13.609375 -13.5 L 16.265625 -13.5 C 16.367188 -13.5 16.460938 -13.59375 16.546875 -13.78125 L 16.3125 -24.21875 C 16.3125 -24.363281 16.265625 -24.425781 16.171875 -24.40625 C 16.078125 -24.394531 16.03125 -24.332031 16.03125 -24.21875 Z M 13.4375 -13.78125 "/></g></g></g><g fill="#8b76ff" fill-opacity="1"><g transform="translate(257.134578, 193.693816)"><g><path d="M 1.125 0 C 0.90625 0 0.726562 -0.0703125 0.59375 -0.21875 C 0.457031 -0.375 0.410156 -0.582031 0.453125 -0.84375 L 5.078125 -38.671875 C 5.117188 -38.929688 5.222656 -39.132812 5.390625 -39.28125 C 5.554688 -39.4375 5.753906 -39.515625 5.984375 -39.515625 L 16.765625 -39.515625 C 20.117188 -39.515625 22.78125 -38.640625 24.75 -36.890625 C 26.726562 -35.140625 27.71875 -32.796875 27.71875 -29.859375 C 27.71875 -29.523438 27.679688 -28.984375 27.609375 -28.234375 L 25.515625 -11.296875 C 25.253906 -9.066406 24.507812 -7.097656 23.28125 -5.390625 C 22.0625 -3.679688 20.460938 -2.351562 18.484375 -1.40625 C 16.515625 -0.46875 14.320312 0 11.90625 0 Z M 11.796875 -9.375 C 11.722656 -9.1875 11.800781 -9.09375 12.03125 -9.09375 L 12.8125 -9.140625 C 13.414062 -9.179688 13.953125 -9.460938 14.421875 -9.984375 C 14.890625 -10.515625 15.203125 -11.195312 15.359375 -12.03125 L 17.21875 -27.546875 L 17.28125 -28.171875 C 17.28125 -28.890625 17.109375 -29.441406 16.765625 -29.828125 C 16.429688 -30.222656 15.976562 -30.421875 15.40625 -30.421875 L 14.625 -30.421875 C 14.4375 -30.421875 14.34375 -30.328125 14.34375 -30.140625 Z M 11.796875 -9.375 "/></g></g></g><g fill="#8b76ff" fill-opacity="1"><g transform="translate(283.609269, 193.693816)"><g><path d="M 26.078125 -31.28125 C 26.046875 -31.007812 25.941406 -30.796875 25.765625 -30.640625 C 25.597656 -30.492188 25.382812 -30.421875 25.125 -30.421875 L 14.625 -30.421875 C 14.4375 -30.421875 14.34375 -30.328125 14.34375 -30.140625 L 13.65625 -24.609375 C 13.582031 -24.421875 13.660156 -24.328125 13.890625 -24.328125 L 19.359375 -24.328125 C 19.628906 -24.328125 19.828125 -24.25 19.953125 -24.09375 C 20.085938 -23.945312 20.132812 -23.742188 20.09375 -23.484375 L 19.1875 -16.09375 C 19.082031 -15.53125 18.765625 -15.25 18.234375 -15.25 L 12.765625 -15.25 C 12.566406 -15.25 12.46875 -15.148438 12.46875 -14.953125 L 11.796875 -9.375 C 11.722656 -9.1875 11.800781 -9.09375 12.03125 -9.09375 L 22.53125 -9.09375 C 22.789062 -9.09375 22.984375 -9.015625 23.109375 -8.859375 C 23.242188 -8.710938 23.296875 -8.503906 23.265625 -8.234375 L 22.359375 -0.84375 C 22.316406 -0.582031 22.210938 -0.375 22.046875 -0.21875 C 21.878906 -0.0703125 21.660156 0 21.390625 0 L 1.125 0 C 0.90625 0 0.726562 -0.0703125 0.59375 -0.21875 C 0.457031 -0.375 0.410156 -0.582031 0.453125 -0.84375 L 5.078125 -38.671875 C 5.117188 -38.929688 5.222656 -39.132812 5.390625 -39.28125 C 5.554688 -39.4375 5.753906 -39.515625 5.984375 -39.515625 L 26.25 -39.515625 C 26.507812 -39.515625 26.707031 -39.4375 26.84375 -39.28125 C 26.976562 -39.132812 27.023438 -38.929688 26.984375 -38.671875 Z M 26.078125 -31.28125 "/></g></g></g><g fill="#8b76ff" fill-opacity="1"><g transform="translate(307.938892, 193.693816)"><g><path d="M 23.203125 -38.890625 C 23.429688 -39.304688 23.769531 -39.515625 24.21875 -39.515625 L 32.796875 -39.515625 C 33.023438 -39.515625 33.203125 -39.4375 33.328125 -39.28125 C 33.460938 -39.132812 33.515625 -38.929688 33.484375 -38.671875 L 28.84375 -0.84375 C 28.8125 -0.582031 28.707031 -0.375 28.53125 -0.21875 C 28.363281 -0.0703125 28.164062 0 27.9375 0 L 19.25 0 C 19.019531 0 18.835938 -0.0703125 18.703125 -0.21875 C 18.578125 -0.375 18.535156 -0.582031 18.578125 -0.84375 L 21.390625 -23.9375 C 21.429688 -24.082031 21.40625 -24.164062 21.3125 -24.1875 C 21.21875 -24.207031 21.132812 -24.160156 21.0625 -24.046875 L 17.21875 -18.515625 L 16.546875 -17.5 L 16.484375 -17.5 L 13.609375 -24.046875 C 13.566406 -24.160156 13.507812 -24.207031 13.4375 -24.1875 C 13.363281 -24.164062 13.304688 -24.082031 13.265625 -23.9375 L 10.4375 -0.84375 C 10.40625 -0.582031 10.3125 -0.375 10.15625 -0.21875 C 10.007812 -0.0703125 9.804688 0 9.546875 0 L 0.90625 0 C 0.644531 0 0.445312 -0.0703125 0.3125 -0.21875 C 0.175781 -0.375 0.128906 -0.582031 0.171875 -0.84375 L 4.796875 -38.671875 C 4.835938 -38.929688 4.941406 -39.132812 5.109375 -39.28125 C 5.273438 -39.4375 5.472656 -39.515625 5.703125 -39.515625 L 14.28125 -39.515625 C 14.726562 -39.515625 15.03125 -39.304688 15.1875 -38.890625 L 18.171875 -31.5625 C 18.253906 -31.40625 18.367188 -31.40625 18.515625 -31.5625 Z M 23.203125 -38.890625 "/></g></g></g><g fill="#8b76ff" fill-opacity="1"><g transform="translate(338.929525, 193.693816)"><g><path d="M 8.46875 -0.109375 C 8.207031 -0.109375 8.007812 -0.179688 7.875 -0.328125 C 7.738281 -0.484375 7.691406 -0.691406 7.734375 -0.953125 L 9.3125 -14 C 9.351562 -14.070312 9.351562 -14.1875 9.3125 -14.34375 L 4.625 -38.5625 L 4.625 -38.78125 C 4.625 -39.269531 4.890625 -39.515625 5.421875 -39.515625 L 14.515625 -39.515625 C 15.035156 -39.515625 15.316406 -39.269531 15.359375 -38.78125 L 16.03125 -27.4375 C 16.03125 -27.320312 16.078125 -27.265625 16.171875 -27.265625 C 16.265625 -27.265625 16.332031 -27.320312 16.375 -27.4375 L 19.8125 -38.78125 C 19.96875 -39.269531 20.304688 -39.515625 20.828125 -39.515625 L 29.921875 -39.515625 C 30.222656 -39.515625 30.421875 -39.429688 30.515625 -39.265625 C 30.609375 -39.097656 30.597656 -38.863281 30.484375 -38.5625 L 19.703125 -14.34375 L 19.640625 -14 L 18.015625 -0.953125 C 17.972656 -0.691406 17.875 -0.484375 17.71875 -0.328125 C 17.570312 -0.179688 17.367188 -0.109375 17.109375 -0.109375 Z M 8.46875 -0.109375 "/></g></g></g></svg>